<svg xmlns="http://www.w3.org/2000/svg" width="4451" height="1098" viewBox="0 0 4451 1098">
  <title>
    Stoplight Logo
  </title>
  <g fill="none" fill-rule="evenodd" transform="translate(0 25)">
    <rect width="60" height="370" x="645" y="159" fill="#FFF" rx="30"/>
    <rect width="60" height="370" x="548" y="596" fill="#FFF" rx="30"/>
    <rect width="60" height="156" x="97" y="811" fill="#FFF" rx="30"/>
    <rect width="60" height="496" y="160" fill="#FFF" rx="30"/>
    <rect width="60" height="701.5" x="323" y="-162" fill="#FFF" rx="30" transform="rotate(90 353 188.75)"/>
    <rect width="60" height="608" x="274" y="322" fill="#FFF" rx="30" transform="rotate(90 304 626)"/>
    <rect width="60" height="511" x="323" y="682" fill="#FFF" rx="30" transform="rotate(90 353 937.5)"/>
    <rect width="116" height="75" x="176" y="336" fill="#FFF" rx="10"/>
    <rect width="90" height="75" x="232" y="937" fill="#FFF" rx="10"/>
    <rect width="70" height="100" x="318" y="84" fill="#FFF" rx="10"/>
    <rect width="90" height="75" x="384" y="937" fill="#FFF" rx="10"/>
    <rect width="116" height="75" x="414" y="336" fill="#FFF" rx="10"/>
    <circle cx="353.5" cy="54.5" r="54.5" stroke="#FFF" stroke-width="50"/>
    <path fill="#FFF" d="M1457.6 692.1c0 56.4003-20.6998 101.6998-62.1 135.9-42.0002 33.6002-92.9997 50.4-153 50.4-53.4003 0-100.4998-15.5998-141.3-46.8-40.8002-31.2002-69-73.7997-84.6-127.8l79.2-32.4c5.4 19.2001 12.9 36.6 22.5 52.2 9.6 15.6 20.85 28.95 33.75 40.05 12.9 11.1 27.15 19.8 42.75 26.1 15.6 6.3 32.1 9.45 49.5 9.45 37.8002 0 68.6999-9.7499 92.7-29.25 24.0001-19.5001 36-45.4498 36-77.85 0-27.0001-9.8999-50.0999-29.7-69.3-18.6-18.6-53.3997-36.6-104.4-54-51.6003-18.6-83.7-31.2-96.3-37.8-68.4003-34.8002-102.6-86.0997-102.6-153.9 0-47.4002 18.8998-87.8998 56.7-121.5 38.4002-33.6002 85.4997-50.4 141.3-50.4 49.2003 0 91.7998 12.5999 127.8 37.8 36.0002 24.6001 60 55.4998 72 92.7l-77.4 32.4c-7.2-24.0001-21.4499-43.95-42.75-59.85-21.3001-15.9-47.2499-23.85-77.85-23.85-32.4002 0-59.6999 9-81.9 27-22.2001 16.8-33.3 38.6999-33.3 65.7 0 22.2001 8.7 41.4 26.1 57.6 19.2001 16.2 60.8997 35.3999 125.1 57.6 65.4003 22.2001 112.0499 49.3498 139.95 81.45 27.9001 32.1002 41.85 71.5498 41.85 118.35zm237.6 179.1c-36.0002 0-65.8499-11.0999-89.55-33.3-23.7001-22.2001-35.85-53.0998-36.45-92.7V498.6h-77.4V423h77.4V288h82.8v135h108v75.6h-108v219.6c0 29.4001 5.7 49.35 17.1 59.85 11.4 10.5 24.3 15.75 38.7 15.75 6.6 0 13.05-.75 19.35-2.25 6.3-1.5 12.15-3.45 17.55-5.85l26.1 73.8c-21.6001 7.8-46.7999 11.7-75.6 11.7zm114.3-227.7c0-67.8003 21.2998-123.8998 63.9-168.3 43.2002-44.4002 97.4997-66.6 162.9-66.6s119.3998 22.1998 162 66.6c43.2002 44.4002 64.8 100.4997 64.8 168.3 0 68.4003-21.5998 124.4998-64.8 168.3-42.6002 44.4002-96.5997 66.6-162 66.6s-119.6998-22.1998-162.9-66.6c-42.6002-44.4002-63.9-100.4997-63.9-168.3zm82.8 0c0 47.4002 13.7999 85.7999 41.4 115.2 27.6001 29.4001 61.7998 44.1 102.6 44.1s74.9999-14.6999 102.6-44.1c27.6001-29.4001 41.4-67.7998 41.4-115.2 0-46.8002-13.7999-84.8999-41.4-114.3-28.2001-30.0002-62.3998-45-102.6-45-40.2002 0-74.3999 14.9999-102.6 45-27.6001 29.4001-41.4 67.4998-41.4 114.3zm657.9 159.3c39.6002 0 72.8999-14.9998 99.9-45 27.0001-29.4001 40.5-67.4998 40.5-114.3 0-46.2002-13.4999-84.2998-40.5-114.3-27.0001-30.0002-60.2998-45-99.9-45-40.2002 0-73.7999 14.9999-100.8 45-26.4001 30.0001-39.6 68.0998-39.6 114.3 0 46.8002 13.1999 85.1998 39.6 115.2 27.0001 29.4001 60.5998 44.1 100.8 44.1zm13.5 75.6c-32.4002 0-61.9499-6.9-88.65-20.7-26.7001-13.8-47.25-32.0999-61.65-54.9h-3.6l3.6 61.2v194.4h-82.8V423h79.2v61.2h3.6c14.4-22.8001 34.9499-41.1 61.65-54.9 26.7001-13.8 56.2498-20.7 88.65-20.7 58.2003 0 107.3998 22.7998 147.6 68.4 41.4002 46.2002 62.1 101.6997 62.1 166.5 0 65.4003-20.6998 120.8998-62.1 166.5-40.2002 45.6002-89.3997 68.4-147.6 68.4zm359.1-658.8V864H2840V219.6h82.8zm207.9 51.3c0 16.2-5.7 30-17.1 41.4-11.4 11.4-25.2 17.1-41.4 17.1s-30-5.7-41.4-17.1c-11.4-11.4-17.1-25.2-17.1-41.4s5.7-30 17.1-41.4c11.4-11.4 25.2-17.1 41.4-17.1s30 5.7 41.4 17.1c11.4 11.4 17.1 25.2 17.1 41.4zM3113.6 423v441h-82.8V423h82.8zm301.5 379.8c40.8002 0 74.0999-14.6999 99.9-44.1 27.0001-29.4001 40.5-67.7998 40.5-115.2 0-46.2002-13.4999-84.2998-40.5-114.3-26.4001-30.0002-59.6998-45-99.9-45-39.6002 0-72.8999 14.9999-99.9 45-27.0001 30.0001-40.5 68.0998-40.5 114.3 0 46.8002 13.4999 84.8999 40.5 114.3 27.0001 30.0002 60.2998 45 99.9 45zm-2.7 270c-24.6001 0-47.6999-3.15-69.3-9.45-21.6001-6.3-41.25-15.15-58.95-26.55-17.7-11.4-32.85-24.9-45.45-40.5-12.6-15.6-22.2-32.9999-28.8-52.2l78.3-32.4c9 25.8001 24.5999 46.5 46.8 62.1 22.2001 15.6 47.9999 23.4 77.4 23.4 45.0002 0 80.0999-13.4999 105.3-40.5 25.2001-27.0001 37.8-64.1998 37.8-111.6v-42.3h-3.6c-15.6 23.4001-36.7499 41.85-63.45 55.35-26.7001 13.5-55.6498 20.25-86.85 20.25-57.6003 0-107.0998-22.4998-148.5-67.5-40.8002-46.2002-61.2-101.9997-61.2-167.4s20.3998-120.8998 61.2-166.5c41.4002-45.6002 90.8997-68.4 148.5-68.4 31.2002 0 60.1499 6.75 86.85 20.25 26.7001 13.5 47.85 31.9499 63.45 55.35h3.6V423h79.2v422.1c0 70.8004-20.0998 126.2998-60.3 166.5-40.8002 40.8002-94.7997 61.2-162 61.2zm323.1-853.2h82.8V423l-3.6 61.2h3.6c12.6-21.6001 31.9499-39.6 58.05-54 26.1001-14.4 53.2499-21.6 81.45-21.6 54.0003 0 95.5498 15.4498 124.65 46.35s43.65 74.8497 43.65 131.85V864h-82.8V603c0-79.2004-35.0997-118.8-105.3-118.8-33.6002 0-61.9499 13.9499-85.05 41.85-23.1001 27.9001-34.65 60.4498-34.65 97.65V864h-82.8V219.6zm639.9 651.6c-36.0002 0-65.8499-11.0999-89.55-33.3-23.7001-22.2001-35.85-53.0998-36.45-92.7V498.6H4172V423h77.4V288h82.8v135h108v75.6h-108v219.6c0 29.4001 5.7 49.35 17.1 59.85 11.4 10.5 24.3 15.75 38.7 15.75 6.6 0 13.05-.75 19.35-2.25 6.3-1.5 12.15-3.45 17.55-5.85l26.1 73.8c-21.6001 7.8-46.7999 11.7-75.6 11.7z"/>
  </g>
</svg>
