<?xml version="1.0" encoding="UTF-8" standalone="no"?>
<svg width="18px" height="18px" viewBox="0 0 18 18" version="1.1" xmlns="http://www.w3.org/2000/svg" xmlns:xlink="http://www.w3.org/1999/xlink">
    <!-- Generator: Sketch 50.2 (55047) - http://www.bohemiancoding.com/sketch -->
    <title>twitter</title>
    <desc>Created with Sketch.</desc>
    <defs></defs>
    <g id="colorful-style-/-about" stroke="none" stroke-width="1" fill="none" fill-rule="evenodd">
        <g id="Tablet-Portrait" transform="translate(-35.000000, -5341.000000)">
            <g id="footer" transform="translate(-2.000000, 5241.000000)">
                <g id="Footer">
                    <g id="twitter" transform="translate(37.000000, 100.000000)">
                        <path d="M0,8.97250909 C0,4.01710909 4.01710909,0 8.97250909,0 C13.9279091,0 17.9450182,4.01710909 17.9450182,8.97250909 C17.9450182,13.9280727 13.9279091,17.9451818 8.97250909,17.9451818 C4.01710909,17.9451818 0,13.9280727 0,8.97250909" id="Fill-351" fill="#9B59B6"></path>
                        <path d="M14.5122545,5.48378182 C14.1048,5.66443636 13.6665818,5.78667273 13.2069273,5.84132727 C13.6762364,5.5602 14.0364,5.11527273 14.2064182,4.58443636 C13.7672182,4.84478182 13.2808909,5.03394545 12.7634727,5.13572727 C12.3488182,4.69423636 11.7582545,4.41818182 11.1043636,4.41818182 C9.8496,4.41818182 8.83194545,5.43583636 8.83194545,6.6906 C8.83194545,6.8688 8.85207273,7.04209091 8.89101818,7.20850909 C7.00249091,7.11376364 5.32816364,6.20901818 4.20725455,4.83398182 C4.01170909,5.1696 3.89961818,5.5602 3.89961818,5.97649091 C3.89961818,6.76472727 4.30101818,7.46050909 4.9104,7.86796364 C4.53812727,7.85618182 4.18745455,7.75407273 3.88129091,7.58356364 L3.88096364,7.61236364 C3.88096364,8.71330909 4.66461818,9.63147273 5.70403636,9.84027273 C5.51356364,9.89230909 5.31245455,9.92012727 5.10545455,9.92012727 C4.95867273,9.92012727 4.81647273,9.90589091 4.67770909,9.87954545 C4.96701818,10.7821636 5.80598182,11.439 6.80056364,11.4574909 C6.02263636,12.0670364 5.04310909,12.4303091 3.97816364,12.4303091 C3.79505455,12.4303091 3.61374545,12.4196727 3.43636364,12.3985636 C4.44158182,13.0434545 5.63629091,13.4196545 6.91952727,13.4196545 C11.0992909,13.4196545 13.3849636,9.95727273 13.3849636,6.95389091 C13.3849636,6.85554545 13.3828364,6.75736364 13.3782545,6.66 C13.8225273,6.3396 14.2077273,5.93950909 14.5122545,5.48378182" id="Fill-352" fill="#F1F2F2"></path>
                    </g>
                </g>
            </g>
        </g>
    </g>
</svg>