<?xml version="1.0" encoding="UTF-8" standalone="no"?>
<svg width="18px" height="18px" viewBox="0 0 18 18" version="1.1" xmlns="http://www.w3.org/2000/svg" xmlns:xlink="http://www.w3.org/1999/xlink">
    <!-- Generator: Sketch 50.2 (55047) - http://www.bohemiancoding.com/sketch -->
    <title>linked in</title>
    <desc>Created with Sketch.</desc>
    <defs></defs>
    <g id="colorful-style-/-about" stroke="none" stroke-width="1" fill="none" fill-rule="evenodd">
        <g id="Tablet-Portrait" transform="translate(-35.000000, -5370.000000)">
            <g id="footer" transform="translate(-2.000000, 5241.000000)">
                <g id="Footer">
                    <g id="linked-in" transform="translate(37.000000, 129.000000)">
                        <path d="M0,8.97267273 C0,4.01710909 4.01727273,0 8.97267273,0 C13.9280727,0 17.9453455,4.01710909 17.9453455,8.97267273 C17.9453455,13.9280727 13.9280727,17.9453455 8.97267273,17.9453455 C4.01727273,17.9453455 0,13.9280727 0,8.97267273" id="Fill-332" fill="#9B59B6"></path>
                        <path d="M4.54123636,13.32 L6.61123636,13.32 L6.61123636,7.09265455 L4.54123636,7.09265455 L4.54123636,13.32 Z M5.58981818,4.09090909 C4.88143636,4.09090909 4.41818182,4.5558 4.41818182,5.16665455 C4.41818182,5.76458182 4.86818182,6.24289091 5.56265455,6.24289091 L5.57607273,6.24289091 C6.29836364,6.24289091 6.74738182,5.76458182 6.74738182,5.16665455 C6.73363636,4.5558 6.29836364,4.09090909 5.58981818,4.09090909 Z M14.0763273,9.7488 L14.0763273,13.32 L12.0058364,13.32 L12.0058364,9.98836364 C12.0058364,9.15152727 11.7068727,8.58027273 10.9572545,8.58027273 C10.3851818,8.58027273 10.0453091,8.96498182 9.89525455,9.33741818 C9.84076364,9.47045455 9.82669091,9.65536364 9.82669091,9.84207273 L9.82669091,13.32 L7.75603636,13.32 C7.75603636,13.32 7.78385455,7.677 7.75603636,7.09265455 L9.82669091,7.09265455 L9.82669091,7.97514545 L9.81294545,7.9956 L9.82669091,7.9956 L9.82669091,7.97514545 C10.1019273,7.55165455 10.5926727,6.94652727 11.6926364,6.94652727 C13.0550727,6.94652727 14.0763273,7.83638182 14.0763273,9.7488 Z" id="Fill-333" fill="#F1F2F2"></path>
                    </g>
                </g>
            </g>
        </g>
    </g>
</svg>